<svg width="60" height="46" viewBox="0 0 60 46" fill="none" xmlns="http://www.w3.org/2000/svg">
<path d="M26.25 45.5C26.25 45.5 22.5 45.5 22.5 41.75C22.5 38 26.25 26.75 41.25 26.75C56.25 26.75 60 38 60 41.75C60 45.5 56.25 45.5 56.25 45.5H26.25ZM41.25 23C44.2337 23 47.0952 21.8147 49.205 19.705C51.3147 17.5952 52.5 14.7337 52.5 11.75C52.5 8.76631 51.3147 5.90483 49.205 3.79505C47.0952 1.68526 44.2337 0.5 41.25 0.5C38.2663 0.5 35.4048 1.68526 33.295 3.79505C31.1853 5.90483 30 8.76631 30 11.75C30 14.7337 31.1853 17.5952 33.295 19.705C35.4048 21.8147 38.2663 23 41.25 23Z" fill="#F78121"/>
<path fill-rule="evenodd" clip-rule="evenodd" d="M19.56 45.5C19.0041 44.3293 18.7268 43.0458 18.75 41.75C18.75 36.6688 21.3 31.4375 26.01 27.8C23.6591 27.0757 21.2098 26.7214 18.75 26.75C3.75 26.75 0 38 0 41.75C0 45.5 3.75 45.5 3.75 45.5H19.56Z" fill="#F78121"/>
<path d="M16.875 23C19.3614 23 21.746 22.0123 23.5041 20.2541C25.2623 18.496 26.25 16.1114 26.25 13.625C26.25 11.1386 25.2623 8.75403 23.5041 6.99587C21.746 5.23772 19.3614 4.25 16.875 4.25C14.3886 4.25 12.004 5.23772 10.2459 6.99587C8.48772 8.75403 7.5 11.1386 7.5 13.625C7.5 16.1114 8.48772 18.496 10.2459 20.2541C12.004 22.0123 14.3886 23 16.875 23Z" fill="#F78121"/>
</svg>
