<svg width="60" height="60" viewBox="0 0 60 60" fill="none" xmlns="http://www.w3.org/2000/svg">
<g clip-path="url(#clip0_177_828)">
<g clip-path="url(#clip1_177_828)">
<path d="M43.6031 8H33.5048C32.5643 8 31.6591 8.35156 30.9655 8.98438L19.4094 19.5312C19.3976 19.543 19.3859 19.5664 19.3741 19.5781C17.4226 21.4062 17.4579 24.3242 19.1272 26.1406C20.6202 27.7695 23.7591 28.2031 25.7223 26.457C25.7341 26.4453 25.7576 26.4453 25.7693 26.4336L35.1624 17.8555C35.9265 17.1641 37.1256 17.2109 37.8192 17.9727C38.5246 18.7344 38.4658 19.918 37.7016 20.6211L34.6333 23.4219L51.75 37.2734C52.0909 37.5547 52.3966 37.8594 52.6787 38.1758V15.5L46.26 9.10156C45.5664 8.39844 44.6024 8 43.6031 8ZM56.4524 15.5234V41.7617C56.4524 43.8359 58.1335 45.5117 60.2143 45.5117H67.7381V15.5234H56.4524ZM62.0952 41.7617C61.0607 41.7617 60.2143 40.918 60.2143 39.8867C60.2143 38.8555 61.0607 38.0117 62.0952 38.0117C63.1298 38.0117 63.9762 38.8555 63.9762 39.8867C63.9762 40.918 63.1298 41.7617 62.0952 41.7617ZM-7.5 45.5H0.0238099C2.10461 45.5 3.78572 43.8242 3.78572 41.75V15.5234H-7.5V45.5ZM-1.85714 38.0117C-0.822618 38.0117 0.0238099 38.8555 0.0238099 39.8867C0.0238099 40.918 -0.822618 41.7617 -1.85714 41.7617C-2.89167 41.7617 -3.7381 40.918 -3.7381 39.8867C-3.7381 38.8437 -2.89167 38.0117 -1.85714 38.0117ZM49.3871 40.1914L31.8354 25.9883L28.3086 29.2109C24.8171 32.3867 19.4682 32.082 16.3528 28.6953C13.1905 25.25 13.4374 19.918 16.8701 16.7773L26.4865 8H16.635C15.6357 8 14.6835 8.39844 13.9781 9.10156L7.54762 15.5V41.7383H9.69896L20.3381 51.3359C23.5592 53.9492 28.2969 53.457 30.9185 50.2461L30.942 50.2227L33.0463 52.0391C34.9155 53.5625 37.6781 53.2695 39.1946 51.4062L42.886 46.8828L43.5208 47.3984C45.1314 48.6992 47.5061 48.4648 48.811 46.8477L49.9278 45.4766C51.2445 43.8594 50.9976 41.5039 49.3871 40.1914Z" fill="#F78121"/>
</g>
</g>
<defs>
<clipPath id="clip0_177_828">
<rect width="60" height="60" fill="white"/>
</clipPath>
<clipPath id="clip1_177_828">
<rect width="75.2381" height="60" fill="white" transform="translate(-7.5 0.5)"/>
</clipPath>
</defs>
</svg>
